<?xml version="1.0" encoding="UTF-8" standalone="no"?>
<!-- Created with Inkscape (http://www.inkscape.org/) -->

<svg
   xmlns:dc="http://purl.org/dc/elements/1.1/"
   xmlns:cc="http://creativecommons.org/ns#"
   xmlns:rdf="http://www.w3.org/1999/02/22-rdf-syntax-ns#"
   xmlns:svg="http://www.w3.org/2000/svg"
   xmlns="http://www.w3.org/2000/svg"
   xmlns:xlink="http://www.w3.org/1999/xlink"
   xmlns:sodipodi="http://sodipodi.sourceforge.net/DTD/sodipodi-0.dtd"
   xmlns:inkscape="http://www.inkscape.org/namespaces/inkscape"
   sodipodi:docname="dashex-logo.svg"
   viewBox="0 0 470 101"
   height="101"
   width="470"
   xml:space="preserve"
   inkscape:version="0.91 r13725"
   version="1.1"
   id="svg5825"><sodipodi:namedview
     inkscape:window-maximized="1"
     inkscape:window-y="541"
     inkscape:window-x="0"
     inkscape:cy="-63.052201"
     inkscape:cx="236.87696"
     inkscape:zoom="1.6110933"
     showgrid="false"
     id="namedview5827"
     inkscape:window-height="1387"
     inkscape:window-width="2560"
     inkscape:pageshadow="2"
     inkscape:pageopacity="0"
     guidetolerance="10"
     gridtolerance="10"
     objecttolerance="10"
     borderopacity="1"
     bordercolor="#666666"
     pagecolor="#ffffff"
     inkscape:current-layer="g5833" /><metadata
     id="metadata5831"><rdf:RDF><cc:Work
         rdf:about=""><dc:format>image/svg+xml</dc:format><dc:type
           rdf:resource="http://purl.org/dc/dcmitype/StillImage" /><dc:title></dc:title></cc:Work></rdf:RDF></metadata><defs
     id="defs5829"><linearGradient
       id="linearGradient8335"
       inkscape:collect="always"><stop
         id="stop8337"
         offset="0"
         style="stop-color:#2075bc;stop-opacity:1;" /><stop
         id="stop8339"
         offset="1"
         style="stop-color:#2075bc;stop-opacity:0;" /></linearGradient><linearGradient
       gradientUnits="userSpaceOnUse"
       y2="2078.7429"
       x2="2497.3008"
       y1="2078.7429"
       x1="2020.4414"
       id="linearGradient8341"
       xlink:href="#linearGradient8335"
       inkscape:collect="always" /></defs><g
     transform="matrix(1.25,0,0,-1.25,0,101)"
     inkscape:label="ink_ext_XXXXXX"
     inkscape:groupmode="layer"
     id="g5833"><path
       inkscape:connector-curvature="0"
       id="path6100"
       d="m 41.536531,47.976511 97.856649,0 -32.91202,-38.6020194 -97.8566414,0 z"
       style="opacity:1;fill:#808080;fill-opacity:0.12068966;stroke:none;stroke-width:0.65955359;stroke-miterlimit:4;stroke-dasharray:none;stroke-opacity:1" /><path
       style="fill:#2891e4;fill-opacity:1;stroke:none;stroke-width:0.08;stroke-miterlimit:4;stroke-dasharray:none;stroke-opacity:1"
       d="m 41.536535,47.800954 -3.1e-5,19.916678 97.856646,0 2e-5,-19.916678 -97.856635,0"
       id="path6104"
       inkscape:connector-curvature="0" /><path
       style="fill:#105185;fill-opacity:1;stroke:#ffffff;stroke-width:0.08;stroke-miterlimit:4;stroke-dasharray:none;stroke-opacity:1"
       d="m 139.39317,47.800954 -2e-5,19.916678 -32.91203,-38.602007 2e-5,-19.9166839 32.91203,38.6020129"
       id="path6106"
       inkscape:connector-curvature="0" /><path
       style="fill:#2891e4;fill-opacity:1;stroke:#ffffff;stroke-width:0.08;stroke-miterlimit:4;stroke-dasharray:none;stroke-opacity:1"
       d="m 106.48114,9.1989411 -2e-5,19.9166839 -97.8566396,0 2.49e-5,-19.9166839 97.8566347,0"
       id="path6108"
       inkscape:connector-curvature="0" /><path
       style="fill:#2891e4;fill-opacity:1;stroke:none;stroke-width:0.08;stroke-miterlimit:4;stroke-dasharray:none;stroke-opacity:1"
       d="M 8.6245053,9.1989411 8.6244804,29.115625 41.536504,67.717632 41.536535,47.800954 8.6245053,9.1989411"
       id="path6110"
       inkscape:connector-curvature="0" /><path
       style="fill:#2891e4;fill-opacity:1;stroke:none;stroke-width:0.08;stroke-miterlimit:4;stroke-dasharray:none;stroke-opacity:1"
       d="m 41.536535,47.800954 -3.1e-5,19.916678 0,0 3.1e-5,-19.916678 0,0"
       id="path6112"
       inkscape:connector-curvature="0" /><path
       inkscape:connector-curvature="0"
       id="path6114"
       d="m 41.536531,67.805405 97.856649,0 -32.91204,-38.602004 -97.8566654,0 z"
       style="opacity:1;fill:#ffffff;fill-opacity:1;stroke:#ffffff;stroke-width:0.08;stroke-miterlimit:4;stroke-dasharray:none;stroke-opacity:1" /><g
       transform="matrix(0.00295989,0,0.00130155,0.00152658,40.018383,35.36671)"
       id="g6116"
       style="fill:#2891e4;fill-opacity:1;stroke:none"><path
         inkscape:connector-curvature="0"
         id="path6118"
         style="fill:#2891e4;fill-opacity:1;fill-rule:nonzero;stroke:none"
         d="M 16300,8150 C 16300,5988.48 15441.3,3915.49 13912.9,2387.07 12384.5,858.667 10311.5,0 8150,0 5988.48,0 3915.49,858.667 2387.07,2387.07 858.667,3915.49 0,5988.48 0,8150 0,10311.5 858.667,12384.5 2387.07,13912.9 3915.49,15441.3 5988.48,16300 8150,16300 c 2161.5,0 4234.5,-858.7 5762.9,-2387.1 C 15441.3,12384.5 16300,10311.5 16300,8150 Z" /></g><path
       inkscape:connector-curvature="0"
       id="path6120"
       style="fill:#ffffff;fill-opacity:1;fill-rule:nonzero;stroke:none"
       d="m 93.283481,51.082797 c 0.20569,0.278824 0.27784,0.549838 0.21138,0.791346 -0.0291,0.248828 -0.29299,0.44285 -0.709831,0.542389 -0.399714,0.131533 -0.91192,0.195622 -1.490845,0.186617 l -21.411697,0 -3.555936,-2.371271 19.39964,0 -7.196354,-4.847272 -19.394872,0 -3.556022,-2.371343 21.512922,0 c 0.649118,0.01007 1.336616,0.07261 2.035973,0.186617 0.753483,0.176661 1.596364,0.355815 2.39209,0.604658 0.767473,0.231725 1.509142,0.497352 2.209032,0.791288 0.616832,0.288029 1.194302,0.593822 1.7242,0.913188 l 6.770766,4.60834 c 0.516917,0.303244 0.884934,0.638601 1.059364,0.965457 z" /><path
       inkscape:connector-curvature="0"
       id="path6122"
       style="fill:#ffffff;fill-opacity:1;fill-rule:nonzero;stroke:none"
       d="m 72.845031,48.908111 -11.414964,0 -3.403377,-2.192261 11.530828,0 3.287513,2.192261 z" /><text
       transform="matrix(1.1941002,0,-0.22728711,-0.83745066,0,0)"
       sodipodi:linespacing="125%"
       id="text5810"
       y="-20.162266"
       x="56.74448"
       style="font-style:normal;font-weight:normal;font-size:7.12168884px;line-height:125%;font-family:sans-serif;letter-spacing:0px;word-spacing:0px;fill:#ffffff;fill-opacity:1;stroke:#ffffff;stroke-width:0.38160339;stroke-linecap:butt;stroke-linejoin:miter;stroke-miterlimit:4;stroke-dasharray:none;stroke-opacity:1"
       xml:space="preserve"><tspan
         id="tspan5812"
         y="-20.162266"
         x="56.74448"
         sodipodi:role="line"
         style="fill:#ffffff;fill-opacity:1;stroke:#ffffff;stroke-width:0.38160339;stroke-miterlimit:4;stroke-dasharray:none;stroke-opacity:1">EX</tspan></text>
<path
       inkscape:connector-curvature="0"
       id="path5814"
       style="fill:#ffffff;fill-opacity:1;fill-rule:nonzero;stroke:none"
       d="m 41.952282,21.756692 c -0.01276,0.214654 -0.07581,0.423277 -0.183898,0.609223 -0.09573,0.191563 -0.266247,0.340928 -0.465471,0.417555 -0.203211,0.101246 -0.428285,0.150594 -0.655093,0.143643 l -8.501597,0 -0.609169,-1.82551 7.702705,0 -1.216399,-3.731691 -7.700813,0 -0.609167,-1.825584 8.541796,0 c 0.2545,0.0073 0.506136,0.05587 0.745205,0.143664 0.239378,0.136006 0.513389,0.27393 0.745103,0.465493 0.226299,0.178392 0.430835,0.382892 0.609219,0.609179 0.147426,0.221733 0.273195,0.457156 0.375463,0.703029 l 1.128329,3.547738 c 0.102576,0.233451 0.135166,0.491628 0.09379,0.743261 z" /><path
       inkscape:connector-curvature="0"
       id="path5816"
       style="fill:#ffffff;fill-opacity:1;fill-rule:nonzero;stroke:none"
       d="m 34.573318,20.082489 -4.532362,0 -0.609177,-1.687711 4.578355,0 0.563184,1.687711 z" /><polygon
       points="797.398,237.396 724.185,237.396 737.856,195.706 698.892,195.706 663.361,303.78 702.332,303.78 715.981,262.094 789.195,262.094 775.541,303.78 814.488,303.78 850,195.706 811.07,195.706 "
       id="polygon5893"
       style="fill:#ffffff;fill-opacity:1"
       transform="matrix(0.05279676,0,0,-0.05279676,25.2221,32.603666)" /><path
       d="m 59.883644,19.636361 c -0.104591,0.140809 -0.213726,0.249148 -0.360232,0.323064 -0.145038,0.07392 -0.321851,0.110081 -0.505953,0.110081 l -4.51143,0 0.252632,0.790423 5.922686,0 0.468785,1.411151 -6.568288,0 c -0.184098,0 -0.395972,-0.03723 -0.58034,-0.111771 -0.212242,-0.07218 -0.394127,-0.180461 -0.572845,-0.324861 -0.149785,-0.140753 -0.325332,-0.288745 -0.438526,-0.469207 -0.143505,-0.180455 -0.248994,-0.393387 -0.321163,-0.577752 l -0.178721,-0.539687 c -0.04207,-0.21441 -0.07761,-0.398249 -0.07391,-0.578812 0.03242,-0.180459 0.07218,-0.357172 0.145827,-0.469206 0.103162,-0.144398 0.214301,-0.252473 0.359493,-0.324855 0.144344,-0.07349 0.32269,-0.140756 0.505263,-0.140756 l 4.511536,0 -0.252738,-0.757901 -5.922688,0 -0.466778,-1.41115 6.566233,0 c 0.184097,0 0.397029,0.03706 0.581182,0.111769 0.212825,0.07218 0.393282,0.18046 0.573006,0.324858 0.148773,0.140756 0.325597,0.288749 0.437578,0.469208 0.14429,0.180458 0.249887,0.393389 0.321107,0.577806 l 0.179986,0.539635 c 0.07139,0.214407 0.07628,0.397933 0.07265,0.578811 -0.03237,0.180406 -0.07081,0.3558 -0.144345,0.469152 z"
       id="path5895"
       inkscape:connector-curvature="0"
       style="fill:#ffffff;fill-opacity:1;stroke-width:0.26458332" /><path
       d="m 51.799137,21.401304 c -0.03241,0.180459 -0.07217,0.324805 -0.176337,0.436947 -0.07449,0.142393 -0.184575,0.248778 -0.328924,0.321953 -0.144348,0.07443 -0.321164,0.110819 -0.505268,0.110819 l -5.15745,0 c -0.1841,0 -0.39703,-0.03723 -0.581131,-0.111768 -0.212875,-0.07217 -0.393337,-0.18046 -0.573795,-0.32486 -0.149044,-0.140757 -0.324806,-0.288746 -0.438264,-0.469206 -0.14287,-0.180458 -0.250892,-0.393385 -0.321164,-0.577752 l -1.373668,-4.222368 2.057225,0 1.407561,4.29486 3.897564,0 -0.429663,-1.259575 -2.74242,0 -0.433092,-1.335441 2.741736,0 -0.543805,-1.699791 2.024806,0 1.406983,4.262336 c 0.06911,0.212927 0.07312,0.393388 0.06911,0.573846 z"
       id="path5897"
       inkscape:connector-curvature="0"
       style="fill:#ffffff;fill-opacity:1;stroke-width:0.26458332" /><path
       style="opacity:1;fill:#808080;fill-opacity:0.12068966;stroke:none;stroke-width:0.65955359;stroke-miterlimit:4;stroke-dasharray:none;stroke-opacity:1"
       d="m 151.93653,47.976511 97.85665,0 -32.91202,-38.6020194 -97.85664,0 z"
       id="path5586"
       inkscape:connector-curvature="0" /><g
       transform="matrix(0.16463682,0,0,0.16463682,38.34942,64.196067)"
       id="g5698"
       style="fill:#2891e4;fill-opacity:1;stroke:#ffffff;stroke-width:0.08;stroke-miterlimit:4;stroke-dasharray:none;stroke-opacity:1"><path
         inkscape:connector-curvature="0"
         id="path5700"
         d="m 534.54675,-134.0633 -5e-5,32 157.22565,0 4e-5,-32 -157.22564,0"
         style="fill:#2891e4;fill-opacity:1;stroke:#ffffff;stroke-width:0.08;stroke-miterlimit:4;stroke-dasharray:none;stroke-opacity:1" /><path
         inkscape:connector-curvature="0"
         id="path5702"
         d="m 691.77239,-134.0633 -4e-5,32 -52.87954,-62.0216 3e-5,-32.00001 52.87955,62.02161"
         style="fill:#2891e4;fill-opacity:1;stroke:#ffffff;stroke-width:0.08;stroke-miterlimit:4;stroke-dasharray:none;stroke-opacity:1" /><path
         inkscape:connector-curvature="0"
         id="path5704"
         d="m 638.89284,-196.08491 -3e-5,32.00001 -157.22565,0 4e-5,-32.00001 157.22564,0"
         style="fill:#2891e4;fill-opacity:1;stroke:#ffffff;stroke-width:0.08;stroke-miterlimit:4;stroke-dasharray:none;stroke-opacity:1" /><path
         inkscape:connector-curvature="0"
         id="path5706"
         d="m 481.6672,-196.08491 -4e-5,32.00001 52.87954,62.0216 5e-5,-32 -52.87955,-62.02161"
         style="fill:#2891e4;fill-opacity:1;stroke:#ffffff;stroke-width:0.08;stroke-miterlimit:4;stroke-dasharray:none;stroke-opacity:1" /><path
         inkscape:connector-curvature="0"
         id="path5708"
         d="m 534.54675,-134.0633 -5e-5,32 0,0 5e-5,-32 0,0"
         style="fill:#2891e4;fill-opacity:1;stroke:#ffffff;stroke-width:0.08;stroke-miterlimit:4;stroke-dasharray:none;stroke-opacity:1" /></g><path
       inkscape:connector-curvature="0"
       id="path5590"
       d="m 151.93654,47.800954 -4e-5,19.916678 97.85665,0 2e-5,-19.916678 -97.85663,0"
       style="fill:#ff0000;fill-opacity:1;stroke:none;stroke-width:0.08;stroke-miterlimit:4;stroke-dasharray:none;stroke-opacity:1" /><path
       inkscape:connector-curvature="0"
       id="path5592"
       d="m 249.79317,47.800954 -2e-5,19.916678 -32.91203,-38.602007 2e-5,-19.9166839 32.91203,38.6020129"
       style="fill:#640000;fill-opacity:1;stroke:none;stroke-width:0.08;stroke-miterlimit:4;stroke-dasharray:none;stroke-opacity:1" /><path
       inkscape:connector-curvature="0"
       id="path5594"
       d="m 216.88114,9.1989411 -2e-5,19.9166839 -97.85664,0 3e-5,-19.9166839 97.85663,0"
       style="fill:#ff0000;fill-opacity:1;stroke:#ffffff;stroke-width:0.08;stroke-miterlimit:4;stroke-dasharray:none;stroke-opacity:1" /><path
       inkscape:connector-curvature="0"
       id="path5596"
       d="m 119.02451,9.1989411 -3e-5,19.9166839 32.91202,38.602007 4e-5,-19.916678 -32.91203,-38.6020129"
       style="fill:#ff0000;fill-opacity:1;stroke:none;stroke-width:0.08;stroke-miterlimit:4;stroke-dasharray:none;stroke-opacity:1" /><path
       inkscape:connector-curvature="0"
       id="path5598"
       d="m 151.93654,47.800954 -4e-5,19.916678 0,0 4e-5,-19.916678 0,0"
       style="fill:#ff0000;fill-opacity:1;stroke:none;stroke-width:0.08;stroke-miterlimit:4;stroke-dasharray:none;stroke-opacity:1" /><path
       inkscape:connector-curvature="0"
       id="path5710"
       d="m 126.35549,47.377058 25.88514,0 -8.70592,-10.211039 -25.88514,0 z"
       style="opacity:1;fill:#ffffff;fill-opacity:1;stroke:#ffffff;stroke-width:0.02116168;stroke-miterlimit:4;stroke-dasharray:none;stroke-opacity:1" /><path
       style="opacity:1;fill:#ffffff;fill-opacity:1;stroke:#ffffff;stroke-width:0.08;stroke-miterlimit:4;stroke-dasharray:none;stroke-opacity:1"
       d="m 151.93653,67.805405 97.85665,0 -32.91204,-38.602004 -97.85666,0 z"
       id="path5600"
       inkscape:connector-curvature="0" /><g
       style="fill:#ff0000;fill-opacity:1;stroke:#ffffff;stroke-width:0.08;stroke-miterlimit:4;stroke-dasharray:none;stroke-opacity:1"
       id="g5684"
       transform="matrix(0.16463682,0,0,0.16463682,148.74942,64.221777)"><path
         style="fill:#ff0000;fill-opacity:1;stroke:#ffffff;stroke-width:0.08;stroke-miterlimit:4;stroke-dasharray:none;stroke-opacity:1"
         d="m 534.54675,-134.0633 -5e-5,32 157.22565,0 4e-5,-32 -157.22564,0"
         id="path5686"
         inkscape:connector-curvature="0" /><path
         style="fill:#ff0000;fill-opacity:1;stroke:#ffffff;stroke-width:0.08;stroke-miterlimit:4;stroke-dasharray:none;stroke-opacity:1"
         d="m 691.77239,-134.0633 -4e-5,32 -52.87954,-62.0216 3e-5,-32.00001 52.87955,62.02161"
         id="path5688"
         inkscape:connector-curvature="0" /><path
         style="fill:#ff0000;fill-opacity:1;stroke:#ffffff;stroke-width:0.08;stroke-miterlimit:4;stroke-dasharray:none;stroke-opacity:1"
         d="m 638.89284,-196.08491 -3e-5,32.00001 -157.22565,0 4e-5,-32.00001 157.22564,0"
         id="path5690"
         inkscape:connector-curvature="0" /><path
         style="fill:#ff0000;fill-opacity:1;stroke:#ffffff;stroke-width:0.08;stroke-miterlimit:4;stroke-dasharray:none;stroke-opacity:1"
         d="m 481.6672,-196.08491 -4e-5,32.00001 52.87954,62.0216 5e-5,-32 -52.87955,-62.02161"
         id="path5692"
         inkscape:connector-curvature="0" /><path
         style="fill:#ff0000;fill-opacity:1;stroke:#ffffff;stroke-width:0.08;stroke-miterlimit:4;stroke-dasharray:none;stroke-opacity:1"
         d="m 534.54675,-134.0633 -5e-5,32 0,0 5e-5,-32 0,0"
         id="path5694"
         inkscape:connector-curvature="0" /></g><path
       inkscape:connector-curvature="0"
       id="path5624"
       d="m 262.33653,47.976511 97.85665,0 -32.91202,-38.6020194 -97.85664,0 z"
       style="opacity:1;fill:#808080;fill-opacity:1;stroke:none;stroke-width:0.65955359;stroke-miterlimit:4;stroke-dasharray:none;stroke-opacity:1" /><path
       style="opacity:1;fill:#ffffff;fill-opacity:1;stroke:#ffffff;stroke-width:0.02116168;stroke-miterlimit:4;stroke-dasharray:none;stroke-opacity:1"
       d="m 236.75549,47.377058 25.88514,0 -8.70592,-10.211039 -25.88514,0 z"
       id="path5696"
       inkscape:connector-curvature="0" /><path
       style="fill:#b3b3b3;fill-opacity:1;stroke:none;stroke-width:0.08;stroke-miterlimit:4;stroke-dasharray:none;stroke-opacity:1"
       d="m 262.33654,47.800954 -4e-5,19.916678 97.85665,0 2e-5,-19.916678 -97.85663,0"
       id="path5628"
       inkscape:connector-curvature="0" /><path
       style="fill:#b3b3b3;fill-opacity:1;stroke:none;stroke-width:0.08;stroke-miterlimit:4;stroke-dasharray:none;stroke-opacity:1"
       d="m 229.42451,9.1989411 -3e-5,19.9166839 32.91202,38.602007 4e-5,-19.916678 -32.91203,-38.6020129"
       id="path5634"
       inkscape:connector-curvature="0" /><path
       style="fill:#b3b3b3;fill-opacity:1;stroke:none;stroke-width:0.08;stroke-miterlimit:4;stroke-dasharray:none;stroke-opacity:1"
       d="m 262.33654,47.800954 -4e-5,19.916678 0,0 4e-5,-19.916678 0,0"
       id="path5636"
       inkscape:connector-curvature="0" /><path
       inkscape:connector-curvature="0"
       id="path5638"
       d="m 262.33653,67.644906 97.85665,0 -32.91204,-38.602004 -97.85666,0 z"
       style="opacity:1;fill:#ffffff;fill-opacity:1;stroke:#ffffff;stroke-width:0.08;stroke-miterlimit:4;stroke-dasharray:none;stroke-opacity:1" /><path
       inkscape:connector-curvature="0"
       id="path5642"
       style="fill:#ffffff;fill-opacity:1;fill-rule:nonzero;stroke:#ff0000;stroke-width:0.80000001;stroke-miterlimit:4;stroke-dasharray:none;stroke-opacity:1"
       d="m 209.27222,47.808337 c -2.81333,-3.299733 -8.05308,-6.464318 -14.5663,-8.797574 -6.51318,-2.333229 -13.76663,-3.644053 -20.16444,-3.644053 -6.39786,0 -11.41608,1.310824 -13.95074,3.644053 -2.53459,2.333256 -2.37805,5.497841 0.43527,8.797574 2.8133,3.299703 8.05298,6.464303 14.56617,8.797528 6.51324,2.333225 13.76671,3.644099 20.16457,3.644099 6.3978,0 11.41601,-1.310874 13.95062,-3.644099 2.53461,-2.333225 2.37815,-5.497825 -0.43515,-8.797528 z" /><path
       d="m 203.68348,51.082797 c 0.20569,0.278824 0.27784,0.549838 0.21138,0.791346 -0.0291,0.248828 -0.29299,0.44285 -0.70983,0.542389 -0.39971,0.131533 -0.91192,0.195622 -1.49084,0.186617 l -21.4117,0 -3.55594,-2.371271 19.39964,0 -7.19635,-4.847272 -19.39487,0 -3.55603,-2.371343 21.51293,0 c 0.64911,0.01007 1.33661,0.07261 2.03597,0.186617 0.75348,0.176661 1.59636,0.355815 2.39209,0.604658 0.76747,0.231725 1.50914,0.497352 2.20903,0.791288 0.61683,0.288029 1.1943,0.593822 1.7242,0.913188 l 6.77077,4.60834 c 0.51691,0.303244 0.88493,0.638601 1.05936,0.965457 z"
       style="fill:#ffffff;fill-opacity:1;fill-rule:nonzero;stroke:none"
       id="path5644"
       inkscape:connector-curvature="0" /><path
       d="m 183.24503,48.908111 -11.41496,0 -3.40338,-2.192261 11.53083,0 3.28751,2.192261 z"
       style="fill:#ffffff;fill-opacity:1;fill-rule:nonzero;stroke:none"
       id="path5646"
       inkscape:connector-curvature="0" /><path
       inkscape:connector-curvature="0"
       id="path5654"
       style="fill:#ff0000;fill-opacity:1;fill-rule:nonzero;stroke:none"
       d="m 203.68348,51.082797 c 0.20569,0.278824 0.27784,0.549838 0.21138,0.791346 -0.0291,0.248828 -0.29299,0.44285 -0.70983,0.542389 -0.39971,0.131533 -0.91192,0.195622 -1.49084,0.186617 l -21.4117,0 -3.55594,-2.371271 19.39964,0 -7.19635,-4.847272 -19.39487,0 -3.55603,-2.371343 21.51293,0 c 0.64911,0.01007 1.33661,0.07261 2.03597,0.186617 0.75348,0.176661 1.59636,0.355815 2.39209,0.604658 0.76747,0.231725 1.50914,0.497352 2.20903,0.791288 0.61683,0.288029 1.1943,0.593822 1.7242,0.913188 l 6.77077,4.60834 c 0.51691,0.303244 0.88493,0.638601 1.05936,0.965457 z" /><path
       inkscape:connector-curvature="0"
       id="path5656"
       style="fill:#ff0000;fill-opacity:1;fill-rule:nonzero;stroke:none"
       d="m 183.24503,48.908111 -11.41496,0 -3.40338,-2.192261 11.53083,0 3.28751,2.192261 z" /><g
       transform="matrix(0.00295989,0,0.00130155,0.00152658,260.81838,35.36671)"
       id="g5658"
       style="fill:none;fill-opacity:1;stroke:#ececec;stroke-opacity:1"><path
         inkscape:connector-curvature="0"
         id="path5660"
         style="fill:none;fill-opacity:1;fill-rule:nonzero;stroke:#ececec;stroke-opacity:1"
         d="M 16300,8150 C 16300,5988.48 15441.3,3915.49 13912.9,2387.07 12384.5,858.667 10311.5,0 8150,0 5988.48,0 3915.49,858.667 2387.07,2387.07 858.667,3915.49 0,5988.48 0,8150 0,10311.5 858.667,12384.5 2387.07,13912.9 3915.49,15441.3 5988.48,16300 8150,16300 c 2161.5,0 4234.5,-858.7 5762.9,-2387.1 C 15441.3,12384.5 16300,10311.5 16300,8150 Z" /></g><g
       transform="matrix(0.00295989,0,0.00130155,0.00152658,260.81838,35.36671)"
       id="g5666"
       style="fill:none;fill-opacity:1;stroke:#b3b3b3;stroke-width:376.35043335;stroke-miterlimit:4;stroke-dasharray:none;stroke-opacity:1"><path
         inkscape:connector-curvature="0"
         id="path5668"
         style="fill:none;fill-opacity:1;fill-rule:nonzero;stroke:#b3b3b3;stroke-width:376.35043335;stroke-miterlimit:4;stroke-dasharray:none;stroke-opacity:1"
         d="M 16300,8150 C 16300,5988.48 15441.3,3915.49 13912.9,2387.07 12384.5,858.667 10311.5,0 8150,0 5988.48,0 3915.49,858.667 2387.07,2387.07 858.667,3915.49 0,5988.48 0,8150 0,10311.5 858.667,12384.5 2387.07,13912.9 3915.49,15441.3 5988.48,16300 8150,16300 c 2161.5,0 4234.5,-858.7 5762.9,-2387.1 C 15441.3,12384.5 16300,10311.5 16300,8150 Z" /></g></g></svg>